<?xml version="1.0" encoding="utf-8"?>
<!-- Generator: Adobe Illustrator 16.0.0, SVG Export Plug-In . SVG Version: 6.00 Build 0)  -->
<!DOCTYPE svg PUBLIC "-//W3C//DTD SVG 1.1//EN" "http://www.w3.org/Graphics/SVG/1.1/DTD/svg11.dtd">
<svg version="1.1" id="Layer_1" xmlns="http://www.w3.org/2000/svg" xmlns:xlink="http://www.w3.org/1999/xlink" x="0px" y="0px"
	 width="1000px" height="831.312px" viewBox="0 0 1000 831.312" enable-background="new 0 0 1000 831.312" xml:space="preserve">
<path fill-rule="evenodd" clip-rule="evenodd" d="M319.443,677.259l-15.205-7.6h7.792 M885.983,348.317
	c-77.785,30.403-161.398,55.11-249.066,55.11C716.985,386.325,806.172,371.25,885.983,348.317 M842.403,325.389
	c-68.664,22.928-148.479,40.286-226.516,36.358C680.75,354.019,766.391,336.916,842.403,325.389 M598.912,327.413
	c72.337,7.604,146.448-7.599,209.286-26.347C743.334,310.31,669.348,318.04,598.912,327.413 M234.054,156.387
	c-5.7,7.475-19.067,15.203-28.566,7.475c-5.83,2.028-5.83-3.673-9.565-7.475C203.586,146.759,224.424,146.759,234.054,156.387
	 M948.696,17.538c-7.605,66.64-39.783,131.25-75.889,190.157l-3.799,102.615c41.68,19.131,89.186,24.707,130.992,41.81
	l-144.424,47.635c-11.271,13.171-15.199,28.377-13.174,45.475c-36.23,64.74-108.443,102.748-171.154,133.215
	c24.703,64.609-70.436,98.814-89.313,153.795c28.379,9.629,68.283-3.545,96.786-3.545c-24.831,3.545-70.182,30.404-110.091,20.777
	l-76.139,81.84c-5.763-13.428,5.703-26.605,15.27-38.008c-15.27-9.371-22.807,13.176-38.008,11.402
	c-20.905,7.348-43.708-17.232-59.037,5.57c24.831-38.002,66.574-1.768,93.306-38.002c-24.767,0-49.407-26.604-72.277-2.027
	c17.103-38.008,53.209,0,85.39-11.148c58.973-34.207,96.978-97.045,133.083-150.25c-18.876-47.635-68.283-9.375-106.291-21.029
	L427.757,667.63c17.229,9.629,40.036,13.432,58.973,5.828c11.466-11.404,34.269-7.602,47.574-3.799
	c-1.774,1.773-41.811-5.576-41.811,21.031c-68.411-26.607-129.218,14.947-180.462,45.605l30.343-38.262
	c-22.93-11.148-57.075,2.027-74.178-13.178l-34.142,9.381c16.979-35.979,54.983,2.021,74.047-34.205
	c81.903,43.832,144.423-28.381,199.662-72.213c-98.942-30.213-216.761-98.754-247.231-209.099
	c-60.874-53.332-89.376-125.29-119.783-193.83C100.97,156.387,49.725,154.363,0,146.759c49.602-8.108,147.529-26.73,147.529-26.73
	s27.997-28.884,56.439-36.233c85.451-20.776,183.947-1.645,244.881,70.568c104.585,5.825,190.095,53.332,290.939,70.309
	C831,186.795,802.372,80.252,832.52,6.266C870.778-12.735,908.913,17.538,948.696,17.538"/>
</svg>
